<?xml version="1.0" encoding="utf-8"?>
<!-- Generator: Adobe Illustrator 19.2.1, SVG Export Plug-In . SVG Version: 6.00 Build 0)  -->
<svg  width="135" height="135" fill="none" version="1.1" id="layer" xmlns="http://www.w3.org/2000/svg" xmlns:xlink="http://www.w3.org/1999/xlink" x="0px" y="0px"
	 viewBox="0 0 652 652" style="enable-background:new 0 0 652 652;" xml:space="preserve">
<style type="text/css">
	.st0{fill:#73C41D;}
</style>
<path id="BambooHR" class="st0" d="M626,319.6c0.7,1.5,1,3.2,1,5c0,1.8-0.3,3.5-1,5.1c-0.7,1.6-1.6,2.9-2.8,4
	c-1.2,1.1-2.5,2-4.1,2.7c-1.6,0.6-3.2,1-5,1c-1.8,0-3.4-0.3-5-1c-1.6-0.6-2.9-1.5-4.1-2.7c-1.2-1.1-2.1-2.5-2.8-4
	c-0.7-1.6-1-3.3-1-5.1c0-1.8,0.3-3.5,1-5c0.7-1.5,1.6-2.9,2.8-4c1.2-1.1,2.5-2,4.1-2.7c1.6-0.6,3.2-1,5-1c1.8,0,3.4,0.3,5,1
	c1.6,0.6,2.9,1.5,4.1,2.7C624.4,316.7,625.3,318,626,319.6z M623.9,328.9c0.5-1.3,0.8-2.8,0.8-4.3c0-1.5-0.3-2.9-0.8-4.3
	c-0.5-1.3-1.3-2.5-2.2-3.4c-0.9-1-2.1-1.7-3.3-2.3c-1.3-0.6-2.7-0.8-4.2-0.8c-1.5,0-2.9,0.3-4.2,0.8c-1.3,0.6-2.4,1.3-3.4,2.3
	c-0.9,1-1.7,2.1-2.2,3.4c-0.5,1.3-0.8,2.7-0.8,4.3c0,1.6,0.3,3,0.8,4.3c0.5,1.3,1.3,2.5,2.2,3.5c0.9,1,2.1,1.7,3.4,2.3
	c1.3,0.6,2.7,0.8,4.2,0.8c1.5,0,2.9-0.3,4.2-0.8c1.3-0.6,2.4-1.3,3.3-2.3C622.6,331.4,623.3,330.2,623.9,328.9z M619,324.4
	c-0.8,0.6-1.7,1-2.8,1.1l4.3,6.6H618l-4.1-6.4h-2.5v6.4h-2.3v-14.9h5.8c1.8,0,3.1,0.4,4,1.1c0.9,0.7,1.3,1.8,1.3,3.2
	C620.2,322.8,619.8,323.8,619,324.4z M613.9,323.8c0.5,0,1,0,1.5,0c0.5,0,0.9-0.1,1.3-0.3c0.4-0.2,0.7-0.4,0.9-0.7
	c0.2-0.3,0.3-0.8,0.3-1.4c0-0.5-0.1-0.9-0.3-1.2c-0.2-0.3-0.4-0.5-0.8-0.7c-0.3-0.2-0.7-0.3-1.1-0.3c-0.4-0.1-0.8-0.1-1.2-0.1h-3.1
	v4.7H613.9z M196.1,319.6v-8.1h9.3v56h-9.3V360h-0.2c-4.1,4.9-11.1,9.5-20.6,9.5c-15.3,0-29-11.8-29-30.1
	c0-17.3,12.7-29.8,29.6-29.8c10.3,0,16.3,5.4,20.2,9.9H196.1z M176.6,361.3c10.6,0,20.4-8.9,20.4-21.5c0-13.3-9.1-22.1-20.2-22.1
	c-14.1,0-20.9,11-20.9,21.7C155.9,350.2,162.6,361.3,176.6,361.3z M278.2,309.6c12.7,0,21.6,8.8,21.6,25.3v32.6h-9.3v-33.3
	c0-8.6-4-16.2-13.6-16.2c-7.9,0-15.3,5.6-15.3,18.5v31.1h-9.4v-33.3c0-9.2-5.1-16.2-13.4-16.2c-9.4,0-15.4,6.8-15.4,18.5v31.1h-9.3
	v-56h9.3v7h0.2c3.8-5,9.5-8.9,16.9-8.9c8.8,0,16,5,18.4,11.6C261.6,315.6,268.4,309.6,278.2,309.6z M403.1,309.6
	c17.6,0,30.2,12.9,30.2,29.8c0,16.5-12.7,30.1-30.2,30.1c-17.1,0-30.2-13.1-30.2-30.1C373,322.1,386.2,309.6,403.1,309.6z
	 M403.1,361.1c11.9,0,20.5-9.4,20.5-21.6c0-11.8-8.1-21.5-20.5-21.5c-12,0-20.5,9.1-20.5,21.5C382.6,352.1,392.3,361.1,403.1,361.1z
	 M469.4,309.6c17.6,0,30.2,12.9,30.2,29.8c0,16.5-12.7,30.1-30.2,30.1c-17.1,0-30.2-13.1-30.2-30.1
	C439.3,322.1,452.5,309.6,469.4,309.6z M469.4,361.1c11.9,0,20.5-9.4,20.5-21.6c0-11.8-8.1-21.5-20.5-21.5c-12,0-20.5,9.1-20.5,21.5
	C448.9,352.1,458.6,361.1,469.4,361.1z M543.8,335.5v-23.8h6.8v55.8h-6.8v-25.8h-29.9v25.8H507v-55.8h6.8v23.8H543.8z M596.5,328.1
	c0,7.9-5.9,14.1-13,15.5l17.7,24h-8.7l-17-23.3H568v23.3h-6.8v-55.8h16.3C591.4,311.7,596.5,320.4,596.5,328.1z M568,338h10.2
	c7.4,0,11.1-4.5,11.1-9.9c0-6.5-4-10.1-11.2-10.1H568V338z M109.2,309c16.3,0,30.4,14,30.4,30.2c0,17.5-13.5,31.1-31.3,31.1
	C92.1,370.3,78,359,78,340.8v-59h9.4l0,36.1l1.1-1.2C92.5,312.7,98.3,309,109.2,309z M108.2,361.8c13.3,0,21.7-9.4,21.7-21.8
	c0-11.4-8-22.2-21.5-22.2c-13.5,0-21.9,10.1-21.9,22.5C86.5,352.6,96.5,361.8,108.2,361.8z M337.6,309c16.3,0,30.4,14,30.4,30.2
	c0,17.5-13.5,31.1-31.3,31.1c-16.2,0-30.3-11.3-30.3-29.5v-53.5h9.4l0,30.5l1.1-1.2C320.9,312.7,326.8,309,337.6,309z M336.7,361.8
	c13.3,0,21.7-9.4,21.7-21.8c0-11.4-8-22.2-21.5-22.2s-21.9,10.1-21.9,22.5C314.9,352.6,324.9,361.8,336.7,361.8z M59.2,288.9
	c7,7.3,7.7,11.4,10.2,18.5l4.2,13.5c0,0-4.1-0.8-7.5-1.3c-3.9-0.6-5.6-1.2-10.6-3.2c-5-2-9.4-6.9-13.8-12.4
	c-4.4-5.5-14.7-14.1-14.7-14.1s3.2,0.2,6.4,1c2.6,0.7,9.5,2.9,16.6,6.5c1.6,0.8,2.4,1.3,4,2.3c2.4,1.4,4.8,3.6,7.2,6
	c2.8,2.8,5.2,5.1,7.3,7.6c-2.3-4.1-8.1-19-19.6-31.4C47.7,280.9,56.8,286.4,59.2,288.9z"/>
</svg>
